<svg id="Layer_1" data-name="Layer 1" xmlns="http://www.w3.org/2000/svg" width="16" height="16" viewBox="0 0 5.03 6">
                                              <defs>
                                                <style>
                                                  .cls-5{fill:#fff}
                                                </style>
                                              </defs>
                                              <g id="_05-copy" data-name="05-copy">
                                                <path d="M2.9 1.06v2.52a.29.29 0 01-.29.29H.29A.29.29 0 010 3.58V.29A.29.29 0 01.29 0h1.45z" fill="#ef6135"></path>
                                                <path d="M2.9 1.06v.1H1.84A.19.19 0 011.65 1V0h.09z" fill="#af522e"></path>
                                                <path d="M5 5.71a.29.29 0 01-.26.29H2.42a.29.29 0 01-.29-.29V2.42a.29.29 0 01.29-.29h1.45L5 3.19z" fill="#ffd18f"></path>
                                                <path d="M5 3.19v.1H4a.2.2 0 01-.2-.19v-1h.1z" fill="#d1a66d"></path>
                                                <path class="cls-5" d="M2.32 1.94H1a.1.1 0 010-.2h1.32a.1.1 0 110 .2zM1.74 2.52H.58a.1.1 0 110-.2h1.16a.1.1 0 110 .2zM1.74 3.1H.58a.1.1 0 110-.2h1.16a.1.1 0 110 .2zM4.45 4.06H3.1A.09.09 0 013 4a.09.09 0 01.1-.1h1.35a.09.09 0 01.1.1.09.09 0 01-.1.06zM4.45 4.65H2.71a.11.11 0 01-.1-.1.1.1 0 01.1-.1h1.74a.09.09 0 01.1.1.1.1 0 01-.1.1zM3.87 5.23H2.71a.1.1 0 010-.2h1.16a.1.1 0 110 .2zM4.45 5.23h-.19a.1.1 0 110-.2h.19a.1.1 0 010 .2z"></path>
                                              </g>
                                            </svg>