<svg id="delete-icon" xmlns="http://www.w3.org/2000/svg" width="12" height="16" viewBox="0 0 12 16">
  <defs>
    <style>
      .cls-1 {
        fill: #61808b;
      }

      .cls-1, .cls-2, .cls-3, .cls-4 {
        fill-rule: evenodd;
      }

      .cls-2 {
        fill: #e76d53;
      }

      .cls-3 {
        fill: #fff;
      }

      .cls-4 {
        fill: #77949e;
      }
    </style>
  </defs>
  <path id="lid-handle" class="cls-1" d="M934,501h-1v-1h-2v1h-1v-2h4v2Z" transform="translate(-926 -499)"/>
  <path id="bin" class="cls-2" d="M935,515h-6c-1.422,0-2-.515-2-2V503h10v10C937,514.469,936.516,515,935,515Z" transform="translate(-926 -499)"/>
  <path id="x" class="cls-3" d="M933,507h1v1h-1v-1Zm-3,0h1v1h-1v-1Zm0,3h1v1h-1v-1Zm3,0h1v1h-1v-1Zm-2-2h1v1h-1v-1Zm1,1h1v1h-1v-1Zm0-1h1v1h-1v-1Zm-1,1h1v1h-1v-1Z" transform="translate(-926 -499)"/>
  <path id="lid" class="cls-4" d="M938,504H926v-2a1,1,0,0,1,1-1h10a1,1,0,0,1,1,1v2Z" transform="translate(-926 -499)"/>
</svg>
