<svg id="Capa_1" data-name="Capa 1" xmlns="http://www.w3.org/2000/svg" class="icon-svg" viewBox="0 0 4.04 4"><defs><style>.cls-3{fill:#e6e6e6}</style></defs><path d="M3.67 1.81a1.84 1.84 0 000-.25.11.11 0 010-.08l.2-.21a.08.08 0 000-.1L3.62.76a.08.08 0 00-.09 0l-.29.03a.07.07 0 01-.07 0A1.56 1.56 0 003 .61a.09.09 0 010-.07V.25a.07.07 0 00-.1-.08L2.46 0a.07.07 0 00-.09 0l-.18.27a.09.09 0 01-.07 0 1.13 1.13 0 00-.26 0 .11.11 0 01-.07 0L1.62 0a.08.08 0 00-.09 0l-.34.13h-.1A.08.08 0 001 .25v.29a.07.07 0 010 .07 1.54 1.54 0 00-.18.17.08.08 0 01-.08.02L.46.73a.09.09 0 00-.09 0l-.23.41a.06.06 0 000 .09l.2.22a.1.1 0 010 .07 2.38 2.38 0 000 .26.08.08 0 010 .06L0 2v.08l.08.47s0 .06.07.07H.5a2.53 2.53 0 00.13.22.08.08 0 01-.01.16l-.11.26a.08.08 0 000 .1l.36.3a.09.09 0 00.09 0l.25-.17h.08l.24.09a.05.05 0 01.05 0l.09.28a.09.09 0 00.1.14h.47a.09.09 0 00.07-.06l.07-.23v-.05a.1.1 0 01.05-.06l1.24-.94h.14a.1.1 0 00.07-.07l.12-.5A.08.08 0 004 2l-.26-.13a.08.08 0 010-.06zM2 2.73A.75.75 0 011.25 2a.75.75 0 11.75.73z" transform="translate(.02)" fill="#9a5ec0"></path><path d="M2 .82a1.16 1.16 0 000 2.32A1.17 1.17 0 003.16 2 1.16 1.16 0 002 .82zm.06 1.82H2a.66.66 0 010-1.32.65.65 0 01.66.68.66.66 0 01-.6.64z" transform="translate(.02)" fill="#f5f5f5"></path><path class="cls-3" d="M1 2A1.17 1.17 0 012.08.82H2a1.16 1.16 0 000 2.32h.08A1.15 1.15 0 011 2z" transform="translate(.02)"></path><path d="M3.44 3.57l.16-.16.4.39a.12.12 0 01-.18.2z" transform="translate(.02)" fill="#6b96ae"></path><path d="M3.59 3.4l-.16.16.21.21.16-.16z" transform="translate(.02)" fill="#2b597f"></path><path class="cls-3" d="M2.48 2.44V3a1.15 1.15 0 01-.48.14.68.68 0 010-.2.76.76 0 01.05-.3.72.72 0 00.43-.2z" transform="translate(.02)"></path><path d="M2.17 2.94a.76.76 0 01.05-.27.81.81 0 01.78-.54.81.81 0 11-.81.81z" transform="translate(.02)" fill="#50758d"></path><path d="M3.55 2.94a.64.64 0 01-.07.28.57.57 0 01-.48.29.58.58 0 01-.58-.57.58.58 0 010-.19.54.54 0 01.13-.22.6.6 0 01.45-.17.58.58 0 01.55.58z" transform="translate(.02)" fill="#27bdf3"></path><path d="M3.55 2.94a.64.64 0 01-.07.28.56.56 0 01-.38.14.58.58 0 01-.57-.58.63.63 0 010-.19V2.5A.6.6 0 013 2.36a.58.58 0 01.55.58z" transform="translate(.02)" fill="#31dbf7"></path></svg>