<svg xmlns="http://www.w3.org/2000/svg" viewBox="0 0 16 16" width="18" height="18"><path d="M15.1 7.5l.9-.8-.7-2.4-1.3-.1c-.2-.3-.3-.5-.5-.7l.2-1.1-2-1.4-1 .6-1-.4L9.3.1S8.3 0 8 0L6.1 2.8 8 5.7c1.3 0 2.3 1 2.3 2.3s-1 2.3-2.3 2.3l-1.6 2.8L8 16c.3 0 1.3-.1 1.3-.1l.5-1.1.9-.3 1 .6 2-1.4-.2-1.1.5-.7 1.2-.1.7-2.4-.9-.9.1-1z" fill="#1989a3"></path><path d="M5.7 8c0-1.3 1-2.3 2.3-2.3V0c-.3 0-1.3.1-1.3.1l-.4 1.1-.9.2-1-.6-2.1 1.5.2 1.1-.5.8-1.1.2-.7 2.4.8.7v1l-.9.7.7 2.4 1.2.2c.2.3.3.5.5.7l-.2 1.1 2 1.4 1-.6.9.3.5 1.1s1 .2 1.3.2v-5.7c-1.3 0-2.3-1-2.3-2.3z" fill="#4aa5ba"></path><path d="M8 2.8L6.8 4.7 8 6.6c.8 0 1.4.6 1.4 1.4S8.8 9.4 8 9.4l-1.3 1.9L8 13.2c2.9 0 5.2-2.3 5.2-5.2S10.9 2.8 8 2.8z" fill="#85c8d3"></path><path d="M6.6 8c0-.8.6-1.4 1.4-1.4V2.8C5.1 2.8 2.8 5.1 2.8 8s2.3 5.2 5.2 5.2V9.4c-.8 0-1.4-.6-1.4-1.4z" fill="#a3cdd6"></path></svg>