<?xml version="1.0" encoding="utf-8"?>
<!-- Generator: Adobe Illustrator 24.2.3, SVG Export Plug-In . SVG Version: 6.00 Build 0)  -->
<svg version="1.1" id="Capa_1" xmlns="http://www.w3.org/2000/svg" xmlns:xlink="http://www.w3.org/1999/xlink" x="0px" y="0px"
	 viewBox="0 0 16 16" style="enable-background:new 0 0 16 16;" xml:space="preserve">
<style type="text/css">
	.st0{fill:#1989A3;}
	.st1{fill:#4AA5BA;}
	.st2{fill:#85C8D3;}
	.st3{fill:#A3CDD6;}
</style>
<g>
	<path class="st0" d="M15.1,7.5L16,6.7l-0.7-2.4L14,4.2c-0.2-0.3-0.3-0.5-0.5-0.7l0.2-1.1l-2-1.4l-1,0.6l-1-0.4L9.3,0.1
		c0,0-1-0.1-1.3-0.1L6.1,2.8L8,5.7c1.3,0,2.3,1,2.3,2.3s-1,2.3-2.3,2.3l-1.6,2.8L8,16c0.3,0,1.3-0.1,1.3-0.1l0.5-1.1
		c0.3-0.1,0.6-0.2,0.9-0.3l1,0.6l2-1.4l-0.2-1.1l0.5-0.7l1.2-0.1l0.7-2.4L15,8.5L15.1,7.5z"/>
	<path class="st1" d="M5.7,8c0-1.3,1-2.3,2.3-2.3V0C7.7,0,6.7,0.1,6.7,0.1L6.3,1.2L5.4,1.4l-1-0.6L2.3,2.3l0.2,1.1L2,4.2L0.9,4.4
		L0.2,6.8L1,7.5c0,0.2,0,0.8,0,1L0.1,9.2l0.7,2.4L2,11.8c0.2,0.3,0.3,0.5,0.5,0.7l-0.2,1.1l2,1.4l1-0.6c0.3,0.1,0.6,0.2,0.9,0.3
		l0.5,1.1c0,0,1,0.2,1.3,0.2v-5.7C6.7,10.3,5.7,9.3,5.7,8L5.7,8z"/>
	<path class="st2" d="M8,2.8L6.8,4.7L8,6.6c0.8,0,1.4,0.6,1.4,1.4S8.8,9.4,8,9.4l-1.3,1.9L8,13.2c2.9,0,5.2-2.3,5.2-5.2
		S10.9,2.8,8,2.8z"/>
	<path class="st3" d="M6.6,8c0-0.8,0.6-1.4,1.4-1.4V2.8C5.1,2.8,2.8,5.1,2.8,8s2.3,5.2,5.2,5.2V9.4C7.2,9.4,6.6,8.8,6.6,8z"/>
</g>
</svg>
