<svg xmlns="http://www.w3.org/2000/svg" id="what-if-icon" class="icon-svg" viewBox="0 0 15.25 16.25">
                              <defs>
                                <style>
                                  .cls-9 {
                                    fill: #ff9e4c;
                                  }
                            
                                  .cls-9, .cls-10, .cls-11, .cls-12 {
                                    fill-rule: evenodd;
                                  }
                            
                                  .cls-10 {
                                    fill: #f86e1b;
                                  }
                            
                                  .cls-11 {
                                    fill: #43809f;
                                  }
                            
                                  .cls-12 {
                                    fill: #f3f3f3;
                                  }
                                </style>
                              </defs>
                              <path id="What-if_copy_3" data-name="What-if copy 3" class="cls-9" d="M847,278a0.637,0.637,0,0,1-1,0c-0.691-.725-3-3-3-3l2-2s2.17,2.129,3,3a0.654,0.654,0,0,1,0,1Z" transform="translate(-833 -262)"></path>
                              <path id="What-if_copy_4" data-name="What-if copy 4" class="cls-10" d="M844,274l3,3h1a0.6,0.6,0,0,0,0-1l-3-3Z" transform="translate(-833 -262)"></path>
                              <path id="What-if_copy" data-name="What-if copy" class="cls-11" d="M839,262a6,6,0,1,1-6,6A5.814,5.814,0,0,1,839,262Zm3,11,1-1,1,1-1,1Z" transform="translate(-833 -262)"></path>
                              <path id="What-if_copy_2" data-name="What-if copy 2" class="cls-12" d="M839,263a5.143,5.143,0,0,1,5,5,4.91,4.91,0,0,1-5,5,5.023,5.023,0,0,1-5-5A5.176,5.176,0,0,1,839,263Z" transform="translate(-833 -262)"></path>
                              <path id="What-if_copy_7" data-name="What-if copy 7" class="cls-10" d="M833,271l4-4,3,2,5-5-1-1h3v3l-1-1-6,6-3-2-3,3Z" transform="translate(-833 -262)"></path>
                            </svg>