<svg version="1.1" id="calendar_copy_6" xmlns="http://www.w3.org/2000/svg" x="0" y="0" viewBox="0 0 16 15.7" class="icon-svg"><style>.st3{fill:#efca81}</style><path d="M14 1.7H2c-1.3 0-2 1-2 2v10c.1 1.1.9 1.9 2 2h12c1.1-.1 1.9-.9 2-2v-10c-.1-1-.9-1.9-2-2z" fill-rule="evenodd" clip-rule="evenodd" fill="#f05565"></path><path id="calendar_copy_2" d="M5 3c-.5.1-.9-.3-1-.8V1c0-.5.4-1 1-1 .5 0 1 .4 1 .9V2c0 .5-.4 1-1 1 .1 0 0 0 0 0zm5-1V1c0-.5.4-1 1-1 .5 0 1 .4 1 .9V2c0 .5-.4 1-.9 1-1 0-1.1-.9-1.1-1z" fill-rule="evenodd" clip-rule="evenodd" fill="#2b587e"></path><path id="calendar_copy_4" d="M14 9.7l-4 4H3c-.5 0-1-.4-1-.9V5.7c0-.5.5-1 1-1h10c.5 0 1 .3 1 .8v4.2z" fill-rule="evenodd" clip-rule="evenodd" fill="#fff"></path><path class="st3" d="M7 10.4v.6c0 .4.3.7.7.7h.6c.4 0 .7-.3.7-.7v-.6c0-.4-.3-.7-.7-.7h-.6c-.4 0-.7.4-.7.7zM4.7 8.7h.6c.4 0 .7-.3.7-.7v-.6c0-.4-.3-.7-.7-.7h-.6c-.4 0-.7.4-.7.7V8c0 .4.3.7.7.7zM4.7 11.7h.6c.4 0 .7-.3.7-.7v-.6c0-.4-.3-.7-.7-.7h-.6c-.4 0-.7.4-.7.7v.6c0 .4.3.7.7.7zM10 7.4V8c0 .4.3.7.7.7h.6c.4 0 .7-.3.7-.7v-.6c0-.4-.3-.7-.7-.7h-.6c-.4 0-.7.4-.7.7zM10.7 11.7h.6c.4 0 .7-.3.7-.7v-.6c0-.4-.3-.7-.7-.7h-.6c-.4 0-.7.3-.7.7v.6c0 .4.3.7.7.7zM7 7.4V8c0 .4.3.7.7.7h.6c.4 0 .7-.3.7-.7v-.6c0-.4-.3-.7-.7-.7h-.6c-.4 0-.7.4-.7.7z"></path><path id="calendar_copy_5" d="M14 8.7v2c-.1 1.6-1.4 2.9-3 3H9c1.1-.1 1.9-.9 2-2v-1h1c1.1 0 1.9-.9 2-2z" fill-rule="evenodd" clip-rule="evenodd" fill="#eaa9b8"></path></svg>