<svg id="help-icon" xmlns="http://www.w3.org/2000/svg" width="20" height="20" viewBox="0 0 22 22">
  <defs>
    <style>
      .cls-1 {
        fill: #2d2e2e;
      }

      .cls-2 {
        fill: #fff;
        fill-rule: evenodd;
      }
    </style>
  </defs>
  <circle id="help-bg" class="cls-1" cx="11" cy="11" r="11"/>
  <path id="_" data-name="?" class="cls-2" d="M214.954,253.169a3.632,3.632,0,0,0-2.2-.565,4.924,4.924,0,0,0-1.163.158,4.023,4.023,0,0,0-1.028.375v2.3a3.4,3.4,0,0,1,1.98-.756,0.807,0.807,0,0,1,.507.152,0.46,0.46,0,0,1,.2.375,0.823,0.823,0,0,1-.055.316,1.009,1.009,0,0,1-.188.282,7.7,7.7,0,0,1-.595.539,2.1,2.1,0,0,0-.709,1.681v0.516h1.969V258.34a1.11,1.11,0,0,1,.176-0.639,2.948,2.948,0,0,1,.6-0.6,2.875,2.875,0,0,0,1.259-2.291A1.925,1.925,0,0,0,214.954,253.169Zm-1.184,6.211a1.762,1.762,0,0,0-2.022,0,1.04,1.04,0,0,0-.377.835,1.087,1.087,0,0,0,.386.847,1.457,1.457,0,0,0,1,.342,1.479,1.479,0,0,0,1.017-.334,1.088,1.088,0,0,0,.378-0.855A1.034,1.034,0,0,0,213.77,259.38Z" transform="translate(-202 -246)"/>
</svg>
